<svg xmlns="http://www.w3.org/2000/svg" width="426" height="426" fill="none" viewBox="0 0 426 426">
  <path fill="#fff" d="M212.508 425.016C95.33 425.016 0 329.686 0 212.508 0 95.33 95.33 0 212.508 0c117.178 0 212.508 95.33 212.508 212.508 0 117.178-95.33 212.508-212.508 212.508Zm0-371.042c-87.419 0-158.534 71.115-158.534 158.534s71.115 158.534 158.534 158.534 158.534-71.115 158.534-158.534S299.927 53.974 212.508 53.974Zm0 280.867c-67.455 0-122.333-54.878-122.333-122.333S145.053 90.175 212.508 90.175s122.333 54.878 122.333 122.333-54.878 122.333-122.333 122.333Zm0-213.595c-50.321 0-91.262 40.941-91.262 91.262s40.941 91.262 91.262 91.262 91.262-40.941 91.262-91.262-40.941-91.262-91.262-91.262Z"/>
</svg>
